<svg xmlns="http://www.w3.org/2000/svg" viewBox="0 0 512 512">
  <rect width="512" height="512" rx="120" fill="#f7fbf5"/>
  <rect x="44" y="44" width="424" height="424" rx="108" fill="#2f8f5b"/>
  <path d="M145 320c0-62 49-111 111-111 28 0 51 9 72 28 16-40 54-68 99-68 7 0 15 1 22 3-10-53-56-95-113-95-41 0-76 20-97 53-16-10-34-15-54-15-58 0-105 47-105 105 0 50 35 92 82 102-11-12-17-27-17-42Z" fill="#dff3e7"/>
  <path d="M178 249c14-30 44-49 78-49 28 0 54 13 71 35 11-7 25-11 40-11 39 0 70 31 70 70s-31 70-70 70H192c-43 0-78-35-78-78 0-35 24-66 58-74 3 13 5 24 6 37Z" fill="#ffffff"/>
  <path d="M243 177c18 13 31 31 37 51-16-11-36-18-57-18-14 0-28 3-40 9 10-18 32-38 60-42Z" fill="#74c395"/>
  <circle cx="220" cy="281" r="18" fill="#2f8f5b"/>
  <circle cx="291" cy="281" r="18" fill="#2f8f5b"/>
  <path d="M211 334c13 20 31 30 53 30 21 0 40-10 53-30" fill="none" stroke="#2f8f5b" stroke-linecap="round" stroke-width="16"/>
</svg>
